<?xml version="1.0" encoding="UTF-8"?>
<svg width="20px" height="20px" viewBox="0 0 20 20" version="1.1" xmlns="http://www.w3.org/2000/svg" xmlns:xlink="http://www.w3.org/1999/xlink">
    <!-- Generator: sketchtool 52.6 (67491) - http://www.bohemiancoding.com/sketch -->
    <title>736188CF-A754-48F9-993D-E7E85ED0DDA4</title>
    <desc>Created with sketchtool.</desc>
    <defs>
        <path d="M12.0867962,19 L6,22.8042476 L6,19 L4,19 C2.8954305,19 2,18.1045695 2,17 L2,5 C2,3.8954305 2.8954305,3 4,3 L20,3 C21.1045695,3 22,3.8954305 22,5 L22,17 C22,18.1045695 21.1045695,19 20,19 L12.0867962,19 Z M8,19.1957524 L11.5132038,17 L20,17 L20,5 L4,5 L4,17 L8,17 L8,19.1957524 Z" id="path-1"></path>
    </defs>
    <g id="Return-User" stroke="none" stroke-width="1" fill="none" fill-rule="evenodd">
        <g id="Gap-Check-8.2" transform="translate(-313.000000, -375.000000)">
            <g id="Side-bar" transform="translate(0.000000, 180.000000)">
                <g id="24-/-comment" transform="translate(311.000000, 192.000000)">
                    <g id="comment">
                        <rect id="placeholder" fill-opacity="0" fill="#FFFFFF" x="0" y="0" width="24" height="24"></rect>
                        <mask id="mask-2" fill="white">
                            <use xlink:href="#path-1"></use>
                        </mask>
                        <g id="Shape" fill-rule="nonzero"></g>
                        <g id="color" mask="url(#mask-2)" fill="#212135">
                            <rect x="0" y="0" width="24" height="24"></rect>
                        </g>
                    </g>
                </g>
            </g>
        </g>
    </g>
</svg>